<?xml version="1.0" encoding="UTF-8" standalone="no"?>
<!-- Created with Inkscape (http://www.inkscape.org/) -->

<svg
   width="36.229mm"
   height="36.229mm"
   viewBox="0 0 36.229001 36.229"
   version="1.1"
   id="svg1"
   inkscape:version="1.4.2 (ebf0e940, 2025-05-08)"
   sodipodi:docname="SCMakesLogoDarkSqaure.svg"
   inkscape:export-filename="/Users/sid/Documents/Logos/SCMakesLogoGreyRed.png"
   inkscape:export-xdpi="358.96106"
   inkscape:export-ydpi="358.96106"
   xmlns:inkscape="http://www.inkscape.org/namespaces/inkscape"
   xmlns:sodipodi="http://sodipodi.sourceforge.net/DTD/sodipodi-0.dtd"
   xmlns="http://www.w3.org/2000/svg"
   xmlns:svg="http://www.w3.org/2000/svg">
  <sodipodi:namedview
     id="namedview1"
     pagecolor="#ffffff"
     bordercolor="#000000"
     borderopacity="0.25"
     inkscape:showpageshadow="2"
     inkscape:pageopacity="0.0"
     inkscape:pagecheckerboard="0"
     inkscape:deskcolor="#d1d1d1"
     inkscape:document-units="mm"
     inkscape:zoom="2.9852992"
     inkscape:cx="41.536875"
     inkscape:cy="92.955507"
     inkscape:window-width="1680"
     inkscape:window-height="1050"
     inkscape:window-x="0"
     inkscape:window-y="0"
     inkscape:window-maximized="0"
     inkscape:current-layer="layer1" />
  <defs
     id="defs1" />
  <g
     inkscape:label="Layer 1"
     inkscape:groupmode="layer"
     id="layer1"
     transform="translate(-100.27708,-44.71458)">
    <path
       id="text1-5-1-8"
       style="font-size:50.8px;font-family:'.New York';-inkscape-font-specification:'.New York';display:inline;fill:#e6e6e6;stroke-width:3.21485"
       d="m 114.0921,44.714685 c -1.84991,0 -3.64161,0.31184 -5.37486,0.93534 -1.73326,0.62351 -3.15806,1.59946 -4.27468,2.92851 -1.09995,1.32904 -1.65003,3.06043 -1.65003,5.19348 0,2.37916 0.71699,4.42188 2.15026,6.1283 1.44993,1.69004 3.52455,3.06812 6.22443,4.13464 l 2.87476,1.13223 c 2.51655,1.00088 4.37491,2.13275 5.57485,3.39617 1.21661,1.26342 1.82521,2.84728 1.82521,4.75062 0,1.81556 -0.43229,3.32488 -1.29604,4.52892 0.28038,0.33975 0.57547,0.6538 0.88521,0.94154 1.04987,-0.71125 1.9453,-1.57505 2.68563,-2.59105 1.11661,-1.52595 1.67483,-3.32244 1.67483,-5.38985 0,-2.37916 -0.74192,-4.4224 -2.22519,-6.12883 -1.48326,-1.72284 -3.57467,-3.13348 -6.27455,-4.23282 l -2.77502,-1.13223 c -2.26657,-0.91884 -4.0664,-1.99401 -5.39967,-3.22461 -1.31661,-1.24701 -1.97456,-2.85451 -1.97456,-4.82347 0,-1.90333 0.61622,-3.45412 1.8495,-4.65192 1.24994,-1.21418 3.08337,-1.82107 5.49992,-1.82107 1.5666,0 2.9334,0.36906 4.10001,1.10742 0.0819,0.05 0.16265,0.10147 0.24288,0.15451 0.37733,-0.21873 0.76539,-0.41674 1.16375,-0.59376 0.0951,-0.0432 0.19046,-0.0853 0.28629,-0.12609 -0.0309,-0.009 -0.0617,-0.0168 -0.093,-0.0253 -1.44993,-0.39379 -3.35002,-0.59066 -5.69991,-0.59066 z m 7.81245,1.29811 c -0.54137,0.30274 -1.05322,0.69277 -1.53996,1.17254 -6.6e-4,6.69e-4 -0.001,0.0013 -0.002,0.002 -0.0965,0.094 -0.19163,0.19091 -0.28526,0.29093 0.41055,0.45824 0.79036,0.9725 1.13947,1.54306 0.8333,1.36187 1.51669,3.00296 2.05,4.9227 h 0.0248 l -0.34984,-7.38353 c -0.27438,-0.18701 -0.62022,-0.36953 -1.03715,-0.54777 z m -19.41174,24.44605 0.39998,8.17108 c 1.03328,0.60709 2.4245,1.14836 4.17442,1.62419 1.76659,0.45943 3.98318,0.68936 6.64972,0.68936 1.8969,0 3.68366,-0.3629 5.35937,-1.08882 -0.21398,-0.11706 -0.42447,-0.24014 -0.63097,-0.36897 -1.33311,0.92259 -2.90939,1.3839 -4.7284,1.3839 -1.33327,0 -2.59116,-0.20527 -3.77444,-0.61547 -1.18328,-0.42661 -2.25851,-1.06656 -3.22513,-1.91978 -0.96662,-0.85321 -1.80828,-1.92786 -2.52491,-3.22409 -0.71663,-1.31264 -1.27485,-2.86292 -1.67483,-4.6514 z"
       sodipodi:nodetypes="cccsccccscccsccccscsccccccccccccccccccccsccsccccc" />
    <path
       id="text2-4-0-2"
       style="font-size:44.834px;font-family:'.New York';-inkscape-font-specification:'.New York';fill:#d33838;stroke-width:3.81903;fill-opacity:1"
       d="m 125.06818,44.714685 c -1.86931,0 -3.63472,0.37746 -5.29632,1.13223 -1.6616,0.73836 -3.13474,1.85395 -4.41988,3.34708 -1.27217,1.47672 -2.27184,3.31417 -2.99879,5.51284 -0.30606,0.91879 -0.54782,1.9019 -0.72502,2.94866 0.79173,0.44935 1.67367,0.87176 2.64635,1.26607 l 1.41439,0.5762 c 0.13825,-2.51902 0.49933,-4.75565 1.08417,-6.71019 0.77887,-2.55965 1.87579,-4.52887 3.29075,-5.90713 1.41496,-1.39469 3.08312,-2.09186 5.00435,-2.09186 1.2462,0 2.36923,0.25409 3.36878,0.76274 1.01254,0.50865 1.89551,1.23051 2.64842,2.16576 0.75291,0.91885 1.37585,2.02656 1.86914,3.32279 0.50627,1.27982 0.88248,2.69886 1.12913,4.25762 h 0.0196 l -0.31161,-8.26926 c -0.59714,-0.57428 -1.5707,-1.09926 -2.92075,-1.5751 -1.35005,-0.49223 -3.28438,-0.73845 -5.80275,-0.73845 z m -13.73198,19.83806 c 0.13096,1.93132 0.43757,3.72794 0.91984,5.38934 0.67502,2.28071 1.62914,4.24153 2.86236,5.88233 1.23322,1.6408 2.70636,2.90391 4.41988,3.78995 1.72651,0.88602 3.64753,1.32911 5.76348,1.32911 1.44091,0 2.74565,-0.12284 3.91397,-0.36896 1.16831,-0.26253 2.14853,-0.57438 2.94039,-0.93535 0.80484,-0.36098 1.36942,-0.69749 1.69395,-1.00924 l 0.31161,-8.26978 h -0.0196 c -0.28559,1.73924 -0.70736,3.27377 -1.26556,4.60282 -0.54521,1.31265 -1.20704,2.40356 -1.98592,3.27319 -0.7659,0.86962 -1.62275,1.52585 -2.57039,1.96887 -0.93465,0.44301 -1.94046,0.66456 -3.0179,0.66456 -1.70055,0 -3.16755,-0.54126 -4.40077,-1.62419 -1.22023,-1.08292 -2.2199,-2.52715 -2.99878,-4.33204 -0.77888,-1.82128 -1.35677,-3.85561 -1.73323,-6.1035 -0.1264,-0.78742 -0.23071,-1.57918 -0.31316,-2.37453 -0.60061,-0.30278 -1.25658,-0.59594 -1.96835,-0.87902 v 0.002 z" />
  </g>
</svg>
